:SAMPLES-PER-SECOND 30
:FULLY-SPECIFIED
:DEGREES
343
root  -11.5872 39.8581 21.2781 178.091 -66.3038 174.828
RightUpLeg  8.0917 -9.5248 0.306157
RightLeg  17.0757 -4.45179 2.50952
RightFoot  -16.6261 -0.498075 -8.33037
RightToes  0.000482159 0.542163 -0.142577
Spine  8.07883 1.0296 10.2382
Spine1  6.11613 3.18529 -4.92333
HEad  0.784376 0.0739289 -1.91148
LeftShoulder1  8.81165 -12.8683 -46.9626
LeftArm  -5.87518 22.183 -25.7583
LeftForeArm  32.6385 -14.5413 -4.86749
LeftHand  -0.25398 0.0180481 5.50724
RightShoulder  4.78401 8.49442 33.9253
RightArm  8.97454 2.38081 40.8402
RightForeArm  4.02614 33.8859 7.32881
RightHand  -2.041 5.94318 -21.0683
LeftUpLeg  -18.8488 6.92635 0.771667
LeftLeg  24.3349 2.19075 1.68313
LeftFoot  2.02156 0.58788 -5.12103
LeftToes  1.06245e-005 4.65855e-005 -8.18503e-006
344
root  -13.0348 39.8272 20.737 178.846 -65.2033 174.393
RightUpLeg  11.3431 -9.21965 -0.709263
RightLeg  14.9518 -3.26023 2.99805
RightFoot  -17.3958 -0.534208 -7.87085
RightToes  0.000482159 0.542163 -0.142577
Spine  6.86777 1.40436 9.95848
Spine1  7.07759 3.66783 -6.14853
HEad  0.575399 0.681994 -2.35592
LeftShoulder1  8.80152 -12.8761 -46.8845
LeftArm  -7.11397 23.6907 -25.6044
LeftForeArm  35.0639 -11.4567 -5.35451
LeftHand  -0.25398 0.0180481 5.50724
RightShoulder  4.76577 8.48931 33.7915
RightArm  9.80644 3.77376 41.0903
RightForeArm  4.84694 35.8867 7.83947
RightHand  -1.88367 5.29996 -20.6192
LeftUpLeg  -17.6279 8.09319 -0.0528855
LeftLeg  9.60178 2.63224 -0.715408
LeftFoot  1.84194 0.630952 -5.54861
LeftToes  1.06245e-005 4.65855e-005 -8.18503e-006
345
root  -14.5411 39.638 20.2003 179.191 -64.0338 174.074
RightUpLeg  14.5502 -9.5838 -2.18128
RightLeg  14.0115 -1.13112 3.42593
RightFoot  -18.9027 -0.561853 -6.59912
RightToes  0.000482159 0.542163 -0.142577
Spine  6.24592 1.69039 9.62589
Spine1  7.71711 4.15145 -7.09177
HEad  0.354756 1.4083 -2.54429
LeftShoulder1  8.71553 -12.7288 -46.8462
LeftArm  -7.42169 25.3885 -25.5252
LeftForeArm  36.5806 -9.65444 -5.48409
LeftHand  -0.25398 0.0180481 5.50724
RightShoulder  4.78139 8.48955 33.9197
RightArm  10.5077 4.7941 41.1681
RightForeArm  5.26459 37.0133 8.1428
RightHand  -1.78476 4.80845 -20.4703
LeftUpLeg  -15.9832 1.73765 2.22108
LeftLeg  -2.65252 14.3751 -5.38959
LeftFoot  0.676389 0.724363 -6.97959
LeftToes  1.06245e-005 4.65855e-005 -8.18503e-006
346
root  -16.1376 39.2812 19.6655 178.415 -63.5022 174.689
RightUpLeg  17.5524 -10.5737 -3.60414
RightLeg  14.6098 1.21698 3.82255
RightFoot  -20.6297 -0.526531 -4.74626
RightToes  0.000482159 0.542163 -0.142577
Spine  6.03227 1.69231 9.75125
Spine1  7.88322 4.27857 -7.68236
HEad  -0.00714991 2.00928 -2.43329
LeftShoulder1  8.56518 -12.4905 -46.72
LeftArm  -7.6351 27.1509 -25.5637
LeftForeArm  36.9946 -9.14894 -5.38122
LeftHand  -0.25398 0.0180481 5.50724
RightShoulder  4.83393 8.53554 34.2012
RightArm  10.773 5.21603 41.2851
RightForeArm  5.56068 37.0243 8.12906
RightHand  -1.80593 4.84857 -20.6253
LeftUpLeg  -16.4672 2.36873 1.51448
LeftLeg  -6.06576 21.3102 -7.70088
LeftFoot  -2.79127 0.588186 -7.50055
LeftToes  1.06245e-005 4.65855e-005 -8.18503e-006
347
root  -17.7807 38.9592 19.0954 177.999 -63.6873 175.091
RightUpLeg  20.2052 -11.7033 -4.90122
RightLeg  15.6235 3.03131 3.82468
RightFoot  -21.1536 -0.411559 -3.12057
RightToes  0.000482159 0.542163 -0.142577
Spine  5.6224 1.60256 9.57698
Spine1  8.30673 4.38958 -8.11752
HEad  -0.487027 2.1329 -2.00814
LeftShoulder1  8.40298 -12.2879 -46.4146
LeftArm  -8.01097 28.756 -25.7844
LeftForeArm  36.6396 -9.46685 -5.19227
LeftHand  -0.25398 0.0180481 5.50724
RightShoulder  4.88836 8.57327 34.5227
RightArm  10.3377 4.58347 41.3225
RightForeArm  5.59884 36.1107 7.85936
RightHand  -1.91978 5.35042 -20.9044
LeftUpLeg  -16.9867 2.32607 0.258907
LeftLeg  -4.69438 28.0849 -8.47788
LeftFoot  -4.21846 0.287596 -4.31244
LeftToes  1.06245e-005 4.65855e-005 -8.18503e-006
348
root  -19.5487 38.6555 18.4478 178.463 -63.291 174.549
RightUpLeg  22.5936 -12.6925 -6.78455
RightLeg  17.3383 5.41262 3.47095
RightFoot  -21.0229 -0.224843 -1.01396
RightToes  0.000482159 0.542163 -0.142577
Spine  4.6556 2.15377 8.66301
Spine1  9.01652 5.01697 -8.12247
HEad  -0.864179 1.7775 -1.26736
LeftShoulder1  8.21033 -12.0599 -46.0016
LeftArm  -8.24703 30.2242 -26.0544
LeftForeArm  35.944 -10.1743 -5.03441
LeftHand  -0.25398 0.0180481 5.50724
RightShoulder  4.96847 8.61181 35.0468
RightArm  9.62305 2.82862 41.0541
RightForeArm  5.06051 34.1819 7.34975
RightHand  -2.07701 6.03475 -21.2622
LeftUpLeg  -17.8847 3.51058 -1.60641
LeftLeg  1.06843 29.7629 -6.19029
LeftFoot  -1.73794 -0.0986609 1.11231
LeftToes  1.06245e-005 4.65855e-005 -8.18503e-006
349
root  -21.4008 38.3921 17.7253 -179.445 -62.1647 171.788
RightUpLeg  24.7739 -12.6936 -9.97496
RightLeg  19.9844 7.92993 3.34605
RightFoot  -20.1176 0.102844 3.17822
RightToes  0.000482159 0.542163 -0.142577
Spine  3.79049 3.16755 6.1372
Spine1  9.44941 5.85583 -7.63841
HEad  -0.87949 1.3578 -0.108141
LeftShoulder1  7.95424 -11.6955 -45.6213
LeftArm  -8.26371 31.6194 -26.0357
LeftForeArm  34.9885 -11.0127 -4.90279
LeftHand  -0.25398 0.0180481 5.50724
RightShoulder  5.12317 8.72067 35.9286
RightArm  9.57975 0.529218 40.8188
RightForeArm  3.71718 30.374 6.3746
RightHand  -2.26149 6.76722 -21.751
LeftUpLeg  -19.4073 10.3056 -6.03914
LeftLeg  9.23855 21.6198 -1.38099
LeftFoot  2.81079 -0.772393 6.08982
LeftToes  1.06245e-005 4.65855e-005 -8.18503e-006
350
root  -23.2076 38.2781 17.0162 -176.288 -61.6162 167.509
RightUpLeg  25.3882 -11.3249 -13.292
RightLeg  24.8747 8.04797 3.78276
RightFoot  -15.9125 0.210953 8.46643
RightToes  0.000482159 0.542163 -0.142577
Spine  3.64832 3.66526 2.82034
Spine1  9.19547 6.16514 -7.31176
HEad  -0.570692 1.14914 1.21465
LeftShoulder1  7.73855 -11.3532 -45.3975
LeftArm  -8.26446 32.5046 -25.488
LeftForeArm  33.874 -11.5814 -4.77475
LeftHand  -0.25398 0.0180481 5.50724
RightShoulder  5.30664 8.88279 36.8384
RightArm  9.39947 -1.59484 41.2775
RightForeArm  2.9264 23.9327 5.41382
RightHand  -2.37765 7.25892 -21.9861
LeftUpLeg  -20.4776 17.7972 -11.5672
LeftLeg  15.3684 11.4834 2.45163
LeftFoot  5.48394 -1.3943 9.24705
LeftToes  1.06245e-005 4.65855e-005 -8.18503e-006
351
root  -24.9 38.3015 16.42 -173.819 -61.9003 164.175
RightUpLeg  22.5809 -10.1157 -15.3835
RightLeg  33.814 5.82384 3.8919
RightFoot  -6.1952 -0.54373 11.452
RightToes  0.000482159 0.542163 -0.142577
Spine  4.02864 3.46581 1.07789
Spine1  8.4622 6.02029 -7.89664
HEad  -0.41422 1.06838 1.81164
LeftShoulder1  7.71865 -11.3065 -45.4233
LeftArm  -8.43887 32.1239 -24.6739
LeftForeArm  33.1715 -11.4897 -4.70179
LeftHand  -0.25398 0.0180481 5.50724
RightShoulder  5.42635 9.03596 37.2568
RightArm  3.53103 -3.21545 42.1836
RightForeArm  8.49561 15.3717 6.3182
RightHand  -2.19423 6.75886 -21.1242
LeftUpLeg  -19.8642 17.9254 -13.6895
LeftLeg  20.0063 10.5083 4.7285
LeftFoot  3.87677 -1.42772 10.4794
LeftToes  1.06245e-005 4.65855e-005 -8.18503e-006
352
root  -26.3578 38.3861 15.9758 -172.224 -61.5735 162.078
RightUpLeg  16.2415 -8.20476 -16.0603
RightLeg  45.1845 2.40815 2.23684
RightFoot  5.97654 -1.62291 11.0146
RightToes  0.000482159 0.542163 -0.142577
Spine  4.85038 3.37679 0.722473
Spine1  8.00002 6.14806 -9.25439
HEad  -0.894036 1.19396 1.16095
LeftShoulder1  7.85422 -11.4987 -45.6379
LeftArm  -8.91724 30.2987 -24.3268
LeftForeArm  33.1826 -11.0711 -4.65531
LeftHand  -0.25398 0.0180481 5.50724
RightShoulder  5.48547 9.19574 37.1802
RightArm  -5.93713 -4.46984 42.6847
RightForeArm  18.549 7.48935 7.11736
RightHand  -1.69916 5.03664 -19.096
LeftUpLeg  -18.0888 17.0027 -14.3505
LeftLeg  22.7306 12.2387 5.88578
LeftFoot  0.182982 -1.0706 10.5515
LeftToes  1.06245e-005 4.65855e-005 -8.18503e-006
